<svg xmlns="http://www.w3.org/2000/svg" width="2em" height="2em" viewBox="0 0 24 24" fill="none" aria-hidden="true" stroke="#949aa4" role="img"><path d="M21.75.75H2.25a1.5 1.5 0 00-1.5 1.5v19.5a1.5 1.5 0 001.5 1.5h19.5a1.5 1.5 0 001.5-1.5V2.25a1.5 1.5 0 00-1.5-1.5zM12 15.75v7.5"></path><path d="M13.687 13.821a.752.752 0 01.936-.54 2.22 2.22 0 002.49-.512 2.224 2.224 0 00-.8-2.413.749.749 0 010-1.08 2.22 2.22 0 00.8-2.412 2.221 2.221 0 00-2.49-.512.75.75 0 01-.936-.54c-.267-1.079-.983-1.9-1.688-1.9s-1.42.822-1.688 1.9a.75.75 0 01-.936.54 2.221 2.221 0 00-2.49.512 2.222 2.222 0 00.8 2.412.75.75 0 010 1.081 2.22 2.22 0 00-.8 2.412 2.22 2.22 0 002.49.511.749.749 0 01.936.541c.267 1.078.983 1.9 1.688 1.9s1.421-.82 1.688-1.9z"></path><path d="M12 11.25a1.5 1.5 0 100-3 1.5 1.5 0 000 3zM8.71 20.62a4.432 4.432 0 01-1.668-.68c-1.766-1.084-3.177-3.949-3.177-3.949a9.278 9.278 0 015.2 1.2M15.351 20.62a4.444 4.444 0 001.67-.68c1.764-1.084 3.175-3.949 3.175-3.949a9.28 9.28 0 00-5.2 1.2"></path></svg>