<svg xmlns="http://www.w3.org/2000/svg" width="2em" height="2em" viewBox="0 0 24 24" fill="none" aria-hidden="true" stroke="#949aa4" role="img"><path d="M18.75 14.004l-4.787.957M14.439 9.53l-2.26.956a1.42 1.42 0 01-1.122-.016 1.48 1.48 0 01-.781-.83 1.525 1.525 0 01.706-1.9l2.259-1.127a1.96 1.96 0 011.594-.094l4.639 1.828"></path><path d="M5.2 15h1.6l3.048 2.326a.83.83 0 001.15.09l4.26-3.518a.841.841 0 00.13-1.164l-2.348-2.609M10.735 7.9l-.247-.2a1.788 1.788 0 00-1.725-.22L5.193 9"></path><path d="M1.39 15.75h2.66a1.141 1.141 0 001.2-1.072V9.32a1.141 1.141 0 00-1.2-1.071H1.39M22.61 15.75h-2.66a1.14 1.14 0 01-1.2-1.072V9.32a1.141 1.141 0 011.2-1.071h2.66"></path><path d="M12 23.25c6.213 0 11.25-5.037 11.25-11.25S18.213.75 12 .75.75 5.787.75 12 5.787 23.25 12 23.25z"></path></svg>