<svg xmlns="http://www.w3.org/2000/svg" width="2em" height="2em" viewBox="0 0 24 24" fill="none" aria-hidden="true" stroke="#949aa4" role="img"><path d="M12.01 14.26a2.25 2.25 0 100-4.5 2.25 2.25 0 000 4.5z"></path><path d="M15.72 15.72c5.858-5.857 8.945-12.268 6.895-14.319-2.05-2.05-8.461 1.037-14.319 6.895-5.858 5.858-8.944 12.268-6.894 14.319 2.05 2.05 8.46-1.037 14.319-6.895z"></path><path d="M22.615 22.616c2.05-2.05-1.037-8.46-6.894-14.319C9.863 2.44 3.452-.647 1.4 1.403c-2.05 2.05 1.037 8.461 6.895 14.319 5.858 5.858 12.269 8.944 14.319 6.894z"></path><defs><clipPath id="science-technology_svg__clip0"><path fill="#fff" d="M0 0h24v24H0z"></path></clipPath></defs></svg>