<svg xmlns="http://www.w3.org/2000/svg" width="2em" height="2em" viewBox="0 0 24 24" fill="none" aria-hidden="true" stroke="#949aa4" role="img"><path d="M6.074 6a2.625 2.625 0 100-5.25 2.625 2.625 0 000 5.25zM19.371 8.978L19.75 12h-3.68L12.7 8.625 15.32 6h3.13a1.5 1.5 0 000-3h-3.13a3.021 3.021 0 00-2.12.879L7.326 9.75H2.7a1.5 1.5 0 000 3h4.628a3.023 3.023 0 002.121-.879l1.125-1.125 3.375 3.375v7.629a1.5 1.5 0 003 0V15h2.8a3.001 3.001 0 002.976-3.372l-.539-4.314M13.95 14.121L16.07 12"></path></svg>