<svg xmlns="http://www.w3.org/2000/svg" width="2em" height="2em" viewBox="0 0 24 24" fill="none" aria-hidden="true" stroke="#949aa4" role="img"><path d="M5.25 23.25a3 3 0 01-3-3V7.458c0-.466.108-.925.317-1.341l2.012-4.025a.75.75 0 011.342 0l2.012 4.025c.209.416.317.875.317 1.34V20.25a3 3 0 01-3 3zM2.335 6.75h5.83M2.25 19.5h6M20.25.75h-6a1.5 1.5 0 00-1.5 1.5v19.5a1.5 1.5 0 001.5 1.5h6a1.5 1.5 0 001.5-1.5V2.25a1.5 1.5 0 00-1.5-1.5zM12.75 5.25h3M12.75 9.75h3M12.75 14.25h3M12.75 18.75h3"></path></svg>