<svg xmlns="http://www.w3.org/2000/svg" width="2em" height="2em" viewBox="0 0 24 24" fill="none" aria-hidden="true" stroke="#949aa4" role="img"><path d="M18 4.144a31.154 31.154 0 014.732-.394.517.517 0 01.478.307.5.5 0 01.04.193v15.768a.505.505 0 01-.5.5C14.457 20.621 12 23.25 12 23.25V6.482S9.545 3.856 1.268 3.75a.5.5 0 00-.518.5v15.768a.505.505 0 00.5.5C9.543 20.621 12 23.25 12 23.25"></path><path d="M12 22.758a6.035 6.035 0 011.636-3.448A8.227 8.227 0 0118 16.847V1.244a.481.481 0 00-.228-.4.6.6 0 00-.494-.066 7.8 7.8 0 00-3.642 2.277A6.035 6.035 0 0012 6.501"></path></svg>