<svg xmlns="http://www.w3.org/2000/svg" width="2em" height="2em" viewBox="0 0 24 24" fill="none" aria-hidden="true" role="img"><path fill-rule="evenodd" clip-rule="evenodd" d="M19.857 5.489a2.48 2.48 0 011.733 1.767c.41 1.56.41 4.812.41 4.812s0 3.253-.41 4.812a2.48 2.48 0 01-1.733 1.768c-1.53.417-7.66.417-7.66.417s-6.133 0-7.662-.417a2.48 2.48 0 01-1.733-1.768c-.41-1.56-.41-4.812-.41-4.812s0-3.253.41-4.812A2.48 2.48 0 014.535 5.49c1.53-.418 7.661-.418 7.661-.418s6.132 0 7.66.418zm-4.543 6.58l-5.125 2.953V9.115l5.125 2.954z" fill="#949aa4"></path></svg>